<?xml version="1.0" standalone="no"?>
<!DOCTYPE svg PUBLIC "-//W3C//DTD SVG 20010904//EN"
 "http://www.w3.org/TR/2001/REC-SVG-20010904/DTD/svg10.dtd">
<svg version="1.0" xmlns="http://www.w3.org/2000/svg"
 width="274.000000pt" height="274.000000pt" viewBox="0 0 274.000000 274.000000"
 preserveAspectRatio="xMidYMid meet">

<g transform="translate(0.000000,274.000000) scale(0.100000,-0.100000)"
fill="#000000" stroke="none">
<path d="M1165 2724 c-197 -30 -411 -115 -572 -226 -104 -71 -240 -203 -319
-307 -78 -103 -184 -313 -218 -433 -94 -330 -67 -671 79 -976 68 -141 137
-242 244 -355 116 -121 232 -206 386 -282 146 -72 255 -107 408 -129 190 -29
394 -15 585 40 120 34 330 140 433 218 457 346 651 930 493 1484 -34 120 -140
330 -218 433 -79 104 -215 236 -319 307 -99 69 -278 154 -389 186 -187 54
-408 69 -593 40z m-418 -1456 c62 -62 113 -118 113 -125 0 -7 10 -18 23 -24
59 -29 321 -428 301 -460 -9 -16 -40 -10 -60 12 -86 96 -349 270 -511 338 -67
28 -125 51 -131 51 -24 0 -16 33 32 130 29 58 60 124 69 148 10 26 23 42 33
42 10 0 68 -50 131 -112z m1439 35 c20 -43 51 -109 70 -147 19 -38 33 -75 30
-81 -2 -7 -17 -16 -32 -19 -51 -13 -228 -99 -317 -154 -96 -58 -188 -126 -278
-204 -117 -100 -118 -39 -3 145 15 23 47 64 71 92 23 27 43 54 43 60 0 5 27
39 60 75 33 36 60 70 60 76 0 17 229 234 246 234 9 0 29 -31 50 -77z"/>
</g>
</svg>
